<mxfile host="app.diagrams.net" modified="2022-05-25T09:10:53.685Z" agent="5.0 (Windows NT 10.0; Win64; x64) AppleWebKit/537.36 (KHTML, like Gecko) Chrome/101.0.4951.67 Safari/537.36" etag="79iDoRLH04XBndovWg8u" version="17.5.0" type="github">
  <diagram id="C5RBs43oDa-KdzZeNtuy" name="Page-1">
    <mxGraphModel dx="1038" dy="579" grid="1" gridSize="10" guides="1" tooltips="1" connect="1" arrows="1" fold="1" page="1" pageScale="1" pageWidth="827" pageHeight="1169" math="0" shadow="0">
      <root>
        <mxCell id="WIyWlLk6GJQsqaUBKTNV-0" />
        <mxCell id="WIyWlLk6GJQsqaUBKTNV-1" parent="WIyWlLk6GJQsqaUBKTNV-0" />
        <mxCell id="7qGiq1eLjrZXOj2jemI3-0" value="createUser.jsp" style="rounded=1;whiteSpace=wrap;html=1;fillColor=#d5e8d4;strokeColor=#82b366;" vertex="1" parent="WIyWlLk6GJQsqaUBKTNV-1">
          <mxGeometry x="20" y="160" width="120" height="60" as="geometry" />
        </mxCell>
        <mxCell id="7qGiq1eLjrZXOj2jemI3-1" value="brugerside.jsp" style="rounded=1;whiteSpace=wrap;html=1;fillColor=#d5e8d4;strokeColor=#82b366;" vertex="1" parent="WIyWlLk6GJQsqaUBKTNV-1">
          <mxGeometry x="20" y="250" width="120" height="60" as="geometry" />
        </mxCell>
        <mxCell id="7qGiq1eLjrZXOj2jemI3-2" value="profil.jsp" style="rounded=1;whiteSpace=wrap;html=1;fillColor=#d5e8d4;strokeColor=#82b366;" vertex="1" parent="WIyWlLk6GJQsqaUBKTNV-1">
          <mxGeometry x="20" y="340" width="120" height="60" as="geometry" />
        </mxCell>
        <mxCell id="7qGiq1eLjrZXOj2jemI3-3" value="index.jsp" style="rounded=1;whiteSpace=wrap;html=1;fillColor=#d5e8d4;strokeColor=#82b366;" vertex="1" parent="WIyWlLk6GJQsqaUBKTNV-1">
          <mxGeometry x="20" y="430" width="120" height="60" as="geometry" />
        </mxCell>
        <mxCell id="7qGiq1eLjrZXOj2jemI3-4" value="redigerStock.jsp" style="rounded=1;whiteSpace=wrap;html=1;fillColor=#f8cecc;strokeColor=#b85450;" vertex="1" parent="WIyWlLk6GJQsqaUBKTNV-1">
          <mxGeometry x="370" y="250" width="120" height="60" as="geometry" />
        </mxCell>
        <mxCell id="7qGiq1eLjrZXOj2jemI3-5" value="profil.jsp" style="rounded=1;whiteSpace=wrap;html=1;fillColor=#f8cecc;strokeColor=#b85450;" vertex="1" parent="WIyWlLk6GJQsqaUBKTNV-1">
          <mxGeometry x="520" y="160" width="120" height="60" as="geometry" />
        </mxCell>
        <mxCell id="7qGiq1eLjrZXOj2jemI3-6" value="requestside.jsp" style="rounded=1;whiteSpace=wrap;html=1;fillColor=#f8cecc;strokeColor=#b85450;" vertex="1" parent="WIyWlLk6GJQsqaUBKTNV-1">
          <mxGeometry x="670" y="160" width="120" height="60" as="geometry" />
        </mxCell>
        <mxCell id="7qGiq1eLjrZXOj2jemI3-7" value="brugerside.jsp" style="rounded=1;whiteSpace=wrap;html=1;fillColor=#f8cecc;strokeColor=#b85450;" vertex="1" parent="WIyWlLk6GJQsqaUBKTNV-1">
          <mxGeometry x="520" y="70" width="120" height="60" as="geometry" />
        </mxCell>
        <mxCell id="7qGiq1eLjrZXOj2jemI3-8" value="opretRequest.jsp" style="rounded=1;whiteSpace=wrap;html=1;fillColor=#d5e8d4;strokeColor=#82b366;" vertex="1" parent="WIyWlLk6GJQsqaUBKTNV-1">
          <mxGeometry x="180" y="160" width="120" height="60" as="geometry" />
        </mxCell>
        <mxCell id="7qGiq1eLjrZXOj2jemI3-9" value="carportDesign.jsp" style="rounded=1;whiteSpace=wrap;html=1;fillColor=#d5e8d4;strokeColor=#82b366;" vertex="1" parent="WIyWlLk6GJQsqaUBKTNV-1">
          <mxGeometry x="180" y="70" width="120" height="60" as="geometry" />
        </mxCell>
        <mxCell id="7qGiq1eLjrZXOj2jemI3-10" value="index.jsp" style="rounded=1;whiteSpace=wrap;html=1;direction=east;strokeColor=#82b366;shadow=0;glass=0;sketch=0;fillColor=#d5e8d4;" vertex="1" parent="WIyWlLk6GJQsqaUBKTNV-1">
          <mxGeometry x="20" y="70" width="120" height="60" as="geometry" />
        </mxCell>
        <mxCell id="7qGiq1eLjrZXOj2jemI3-11" value="svgTegning.jsp" style="rounded=1;whiteSpace=wrap;html=1;fillColor=#f8cecc;strokeColor=#b85450;" vertex="1" parent="WIyWlLk6GJQsqaUBKTNV-1">
          <mxGeometry x="520" y="430" width="120" height="60" as="geometry" />
        </mxCell>
        <mxCell id="7qGiq1eLjrZXOj2jemI3-12" value="redigerRequest.jsp" style="rounded=1;whiteSpace=wrap;html=1;fillColor=#f8cecc;strokeColor=#b85450;" vertex="1" parent="WIyWlLk6GJQsqaUBKTNV-1">
          <mxGeometry x="520" y="340" width="120" height="60" as="geometry" />
        </mxCell>
        <mxCell id="7qGiq1eLjrZXOj2jemI3-13" value="brugerside.jsp" style="rounded=1;whiteSpace=wrap;html=1;fillColor=#f8cecc;strokeColor=#b85450;" vertex="1" parent="WIyWlLk6GJQsqaUBKTNV-1">
          <mxGeometry x="520" y="250" width="120" height="60" as="geometry" />
        </mxCell>
        <mxCell id="7qGiq1eLjrZXOj2jemI3-14" value="requestDetaljer.jsp" style="rounded=1;whiteSpace=wrap;html=1;fillColor=#f8cecc;strokeColor=#b85450;" vertex="1" parent="WIyWlLk6GJQsqaUBKTNV-1">
          <mxGeometry x="670" y="250" width="120" height="60" as="geometry" />
        </mxCell>
        <mxCell id="7qGiq1eLjrZXOj2jemI3-15" value="stockside.jsp" style="rounded=1;whiteSpace=wrap;html=1;fillColor=#f8cecc;strokeColor=#b85450;" vertex="1" parent="WIyWlLk6GJQsqaUBKTNV-1">
          <mxGeometry x="370" y="160" width="120" height="60" as="geometry" />
        </mxCell>
        <mxCell id="7qGiq1eLjrZXOj2jemI3-16" value="requestDetaljer" style="rounded=1;whiteSpace=wrap;html=1;fillColor=#f8cecc;strokeColor=#b85450;" vertex="1" parent="WIyWlLk6GJQsqaUBKTNV-1">
          <mxGeometry x="520" y="520" width="120" height="60" as="geometry" />
        </mxCell>
        <mxCell id="7qGiq1eLjrZXOj2jemI3-17" value="brugerside.jsp" style="rounded=1;whiteSpace=wrap;html=1;fillColor=#f8cecc;strokeColor=#b85450;" vertex="1" parent="WIyWlLk6GJQsqaUBKTNV-1">
          <mxGeometry x="670" y="520" width="120" height="60" as="geometry" />
        </mxCell>
        <mxCell id="7qGiq1eLjrZXOj2jemI3-18" value="opretStock.jsp" style="rounded=1;whiteSpace=wrap;html=1;fillColor=#f8cecc;strokeColor=#b85450;" vertex="1" parent="WIyWlLk6GJQsqaUBKTNV-1">
          <mxGeometry x="220" y="250" width="120" height="60" as="geometry" />
        </mxCell>
        <mxCell id="7qGiq1eLjrZXOj2jemI3-19" value="brugerside.jsp" style="rounded=1;whiteSpace=wrap;html=1;fillColor=#f8cecc;strokeColor=#b85450;" vertex="1" parent="WIyWlLk6GJQsqaUBKTNV-1">
          <mxGeometry x="290" y="340" width="120" height="60" as="geometry" />
        </mxCell>
        <mxCell id="7qGiq1eLjrZXOj2jemI3-29" value="" style="endArrow=classic;html=1;rounded=0;exitX=0.5;exitY=1;exitDx=0;exitDy=0;entryX=0.5;entryY=0;entryDx=0;entryDy=0;" edge="1" parent="WIyWlLk6GJQsqaUBKTNV-1" source="7qGiq1eLjrZXOj2jemI3-10" target="7qGiq1eLjrZXOj2jemI3-0">
          <mxGeometry relative="1" as="geometry">
            <mxPoint x="230" y="430" as="sourcePoint" />
            <mxPoint x="330" y="430" as="targetPoint" />
          </mxGeometry>
        </mxCell>
        <mxCell id="7qGiq1eLjrZXOj2jemI3-30" value="send forespÃ¸rgsel" style="edgeLabel;resizable=0;html=1;align=center;verticalAlign=middle;shadow=0;glass=0;sketch=0;strokeColor=default;gradientColor=#ffffff;" connectable="0" vertex="1" parent="7qGiq1eLjrZXOj2jemI3-29">
          <mxGeometry relative="1" as="geometry">
            <mxPoint as="offset" />
          </mxGeometry>
        </mxCell>
        <mxCell id="7qGiq1eLjrZXOj2jemI3-33" value="" style="endArrow=classic;html=1;rounded=0;exitX=0.5;exitY=1;exitDx=0;exitDy=0;entryX=0.5;entryY=0;entryDx=0;entryDy=0;" edge="1" parent="WIyWlLk6GJQsqaUBKTNV-1" source="7qGiq1eLjrZXOj2jemI3-0" target="7qGiq1eLjrZXOj2jemI3-1">
          <mxGeometry relative="1" as="geometry">
            <mxPoint x="230" y="450" as="sourcePoint" />
            <mxPoint x="330" y="450" as="targetPoint" />
          </mxGeometry>
        </mxCell>
        <mxCell id="7qGiq1eLjrZXOj2jemI3-34" value="opret bruger" style="edgeLabel;resizable=0;html=1;align=center;verticalAlign=middle;shadow=0;glass=0;sketch=0;strokeColor=default;gradientColor=#ffffff;" connectable="0" vertex="1" parent="7qGiq1eLjrZXOj2jemI3-33">
          <mxGeometry relative="1" as="geometry" />
        </mxCell>
        <mxCell id="7qGiq1eLjrZXOj2jemI3-35" value="" style="endArrow=classic;html=1;rounded=0;exitX=0.5;exitY=1;exitDx=0;exitDy=0;" edge="1" parent="WIyWlLk6GJQsqaUBKTNV-1" source="7qGiq1eLjrZXOj2jemI3-1" target="7qGiq1eLjrZXOj2jemI3-2">
          <mxGeometry relative="1" as="geometry">
            <mxPoint x="260" y="420" as="sourcePoint" />
            <mxPoint x="260" y="450" as="targetPoint" />
          </mxGeometry>
        </mxCell>
        <mxCell id="7qGiq1eLjrZXOj2jemI3-36" value="opdater brugeroplysninger" style="edgeLabel;resizable=0;html=1;align=center;verticalAlign=middle;shadow=0;glass=0;sketch=0;strokeColor=default;gradientColor=#ffffff;" connectable="0" vertex="1" parent="7qGiq1eLjrZXOj2jemI3-35">
          <mxGeometry relative="1" as="geometry">
            <mxPoint y="-5" as="offset" />
          </mxGeometry>
        </mxCell>
        <mxCell id="7qGiq1eLjrZXOj2jemI3-37" value="" style="endArrow=classic;html=1;rounded=0;exitX=0.5;exitY=1;exitDx=0;exitDy=0;entryX=0.5;entryY=0;entryDx=0;entryDy=0;" edge="1" parent="WIyWlLk6GJQsqaUBKTNV-1" source="7qGiq1eLjrZXOj2jemI3-2" target="7qGiq1eLjrZXOj2jemI3-3">
          <mxGeometry relative="1" as="geometry">
            <mxPoint x="230" y="440" as="sourcePoint" />
            <mxPoint x="330" y="440" as="targetPoint" />
          </mxGeometry>
        </mxCell>
        <mxCell id="7qGiq1eLjrZXOj2jemI3-38" value="opdater oplysninger" style="edgeLabel;resizable=0;html=1;align=center;verticalAlign=middle;shadow=0;glass=0;sketch=0;strokeColor=default;gradientColor=#ffffff;" connectable="0" vertex="1" parent="7qGiq1eLjrZXOj2jemI3-37">
          <mxGeometry relative="1" as="geometry">
            <mxPoint as="offset" />
          </mxGeometry>
        </mxCell>
        <mxCell id="7qGiq1eLjrZXOj2jemI3-39" value="" style="endArrow=classic;html=1;rounded=0;exitX=0.5;exitY=1;exitDx=0;exitDy=0;entryX=0.5;entryY=0;entryDx=0;entryDy=0;" edge="1" parent="WIyWlLk6GJQsqaUBKTNV-1" source="7qGiq1eLjrZXOj2jemI3-9" target="7qGiq1eLjrZXOj2jemI3-8">
          <mxGeometry relative="1" as="geometry">
            <mxPoint x="150" y="450" as="sourcePoint" />
            <mxPoint x="340" y="450" as="targetPoint" />
          </mxGeometry>
        </mxCell>
        <mxCell id="7qGiq1eLjrZXOj2jemI3-40" value="opret request" style="edgeLabel;resizable=0;html=1;align=center;verticalAlign=middle;shadow=0;glass=0;sketch=0;strokeColor=default;gradientColor=#ffffff;" connectable="0" vertex="1" parent="7qGiq1eLjrZXOj2jemI3-39">
          <mxGeometry relative="1" as="geometry" />
        </mxCell>
        <mxCell id="7qGiq1eLjrZXOj2jemI3-67" value="" style="endArrow=classic;html=1;rounded=0;exitX=0.5;exitY=1;exitDx=0;exitDy=0;entryX=0.5;entryY=0;entryDx=0;entryDy=0;" edge="1" parent="WIyWlLk6GJQsqaUBKTNV-1" source="7qGiq1eLjrZXOj2jemI3-7" target="7qGiq1eLjrZXOj2jemI3-5">
          <mxGeometry relative="1" as="geometry">
            <mxPoint x="160" y="460" as="sourcePoint" />
            <mxPoint x="350" y="460" as="targetPoint" />
          </mxGeometry>
        </mxCell>
        <mxCell id="7qGiq1eLjrZXOj2jemI3-68" value="opdater adminoplysninger" style="edgeLabel;resizable=0;html=1;align=center;verticalAlign=middle;shadow=0;glass=0;sketch=0;strokeColor=default;gradientColor=#ffffff;" connectable="0" vertex="1" parent="7qGiq1eLjrZXOj2jemI3-67">
          <mxGeometry relative="1" as="geometry" />
        </mxCell>
        <mxCell id="7qGiq1eLjrZXOj2jemI3-69" value="" style="endArrow=classic;html=1;rounded=0;exitX=0;exitY=0.5;exitDx=0;exitDy=0;entryX=0.5;entryY=0;entryDx=0;entryDy=0;" edge="1" parent="WIyWlLk6GJQsqaUBKTNV-1" source="7qGiq1eLjrZXOj2jemI3-7" target="7qGiq1eLjrZXOj2jemI3-15">
          <mxGeometry relative="1" as="geometry">
            <mxPoint x="170" y="470" as="sourcePoint" />
            <mxPoint x="360" y="470" as="targetPoint" />
          </mxGeometry>
        </mxCell>
        <mxCell id="7qGiq1eLjrZXOj2jemI3-70" value="se stock" style="edgeLabel;resizable=0;html=1;align=center;verticalAlign=middle;shadow=0;glass=0;sketch=0;strokeColor=default;gradientColor=#ffffff;" connectable="0" vertex="1" parent="7qGiq1eLjrZXOj2jemI3-69">
          <mxGeometry relative="1" as="geometry" />
        </mxCell>
        <mxCell id="7qGiq1eLjrZXOj2jemI3-71" value="" style="endArrow=classic;html=1;rounded=0;exitX=0;exitY=0.5;exitDx=0;exitDy=0;entryX=0.5;entryY=0;entryDx=0;entryDy=0;" edge="1" parent="WIyWlLk6GJQsqaUBKTNV-1" source="7qGiq1eLjrZXOj2jemI3-15" target="7qGiq1eLjrZXOj2jemI3-18">
          <mxGeometry relative="1" as="geometry">
            <mxPoint x="180" y="480" as="sourcePoint" />
            <mxPoint x="370" y="480" as="targetPoint" />
          </mxGeometry>
        </mxCell>
        <mxCell id="7qGiq1eLjrZXOj2jemI3-72" value="opret" style="edgeLabel;resizable=0;html=1;align=center;verticalAlign=middle;shadow=0;glass=0;sketch=0;strokeColor=default;gradientColor=#ffffff;" connectable="0" vertex="1" parent="7qGiq1eLjrZXOj2jemI3-71">
          <mxGeometry relative="1" as="geometry" />
        </mxCell>
        <mxCell id="7qGiq1eLjrZXOj2jemI3-73" value="" style="endArrow=classic;html=1;rounded=0;exitX=0.5;exitY=1;exitDx=0;exitDy=0;entryX=0.25;entryY=0;entryDx=0;entryDy=0;" edge="1" parent="WIyWlLk6GJQsqaUBKTNV-1" source="7qGiq1eLjrZXOj2jemI3-18" target="7qGiq1eLjrZXOj2jemI3-19">
          <mxGeometry relative="1" as="geometry">
            <mxPoint x="190" y="490" as="sourcePoint" />
            <mxPoint x="380" y="490" as="targetPoint" />
          </mxGeometry>
        </mxCell>
        <mxCell id="7qGiq1eLjrZXOj2jemI3-74" value="opret" style="edgeLabel;resizable=0;html=1;align=center;verticalAlign=middle;shadow=0;glass=0;sketch=0;strokeColor=default;gradientColor=#ffffff;" connectable="0" vertex="1" parent="7qGiq1eLjrZXOj2jemI3-73">
          <mxGeometry relative="1" as="geometry" />
        </mxCell>
        <mxCell id="7qGiq1eLjrZXOj2jemI3-75" value="" style="endArrow=classic;html=1;rounded=0;exitX=0.5;exitY=1;exitDx=0;exitDy=0;entryX=0.5;entryY=0;entryDx=0;entryDy=0;" edge="1" parent="WIyWlLk6GJQsqaUBKTNV-1" source="7qGiq1eLjrZXOj2jemI3-15" target="7qGiq1eLjrZXOj2jemI3-4">
          <mxGeometry relative="1" as="geometry">
            <mxPoint x="200" y="500" as="sourcePoint" />
            <mxPoint x="390" y="500" as="targetPoint" />
          </mxGeometry>
        </mxCell>
        <mxCell id="7qGiq1eLjrZXOj2jemI3-76" value="rediger" style="edgeLabel;resizable=0;html=1;align=center;verticalAlign=middle;shadow=0;glass=0;sketch=0;strokeColor=default;gradientColor=#ffffff;" connectable="0" vertex="1" parent="7qGiq1eLjrZXOj2jemI3-75">
          <mxGeometry relative="1" as="geometry" />
        </mxCell>
        <mxCell id="7qGiq1eLjrZXOj2jemI3-77" value="" style="endArrow=classic;html=1;rounded=0;exitX=0.5;exitY=1;exitDx=0;exitDy=0;entryX=0.75;entryY=0;entryDx=0;entryDy=0;" edge="1" parent="WIyWlLk6GJQsqaUBKTNV-1" source="7qGiq1eLjrZXOj2jemI3-4" target="7qGiq1eLjrZXOj2jemI3-19">
          <mxGeometry relative="1" as="geometry">
            <mxPoint x="210" y="510" as="sourcePoint" />
            <mxPoint x="400" y="510" as="targetPoint" />
          </mxGeometry>
        </mxCell>
        <mxCell id="7qGiq1eLjrZXOj2jemI3-78" value="rediger" style="edgeLabel;resizable=0;html=1;align=center;verticalAlign=middle;shadow=0;glass=0;sketch=0;strokeColor=default;gradientColor=#ffffff;" connectable="0" vertex="1" parent="7qGiq1eLjrZXOj2jemI3-77">
          <mxGeometry relative="1" as="geometry" />
        </mxCell>
        <mxCell id="7qGiq1eLjrZXOj2jemI3-79" value="" style="endArrow=classic;html=1;rounded=0;exitX=1;exitY=1;exitDx=0;exitDy=0;entryX=0;entryY=0;entryDx=0;entryDy=0;" edge="1" parent="WIyWlLk6GJQsqaUBKTNV-1" source="7qGiq1eLjrZXOj2jemI3-15" target="7qGiq1eLjrZXOj2jemI3-13">
          <mxGeometry relative="1" as="geometry">
            <mxPoint x="220" y="520" as="sourcePoint" />
            <mxPoint x="410" y="520" as="targetPoint" />
          </mxGeometry>
        </mxCell>
        <mxCell id="7qGiq1eLjrZXOj2jemI3-80" value="slet" style="edgeLabel;resizable=0;html=1;align=center;verticalAlign=middle;shadow=0;glass=0;sketch=0;strokeColor=default;gradientColor=#ffffff;" connectable="0" vertex="1" parent="7qGiq1eLjrZXOj2jemI3-79">
          <mxGeometry relative="1" as="geometry" />
        </mxCell>
        <mxCell id="7qGiq1eLjrZXOj2jemI3-81" value="" style="endArrow=classic;html=1;rounded=0;exitX=0;exitY=1;exitDx=0;exitDy=0;entryX=1;entryY=0;entryDx=0;entryDy=0;" edge="1" parent="WIyWlLk6GJQsqaUBKTNV-1" source="7qGiq1eLjrZXOj2jemI3-14" target="7qGiq1eLjrZXOj2jemI3-12">
          <mxGeometry relative="1" as="geometry">
            <mxPoint x="230" y="530" as="sourcePoint" />
            <mxPoint x="420" y="530" as="targetPoint" />
          </mxGeometry>
        </mxCell>
        <mxCell id="7qGiq1eLjrZXOj2jemI3-82" value="rediger" style="edgeLabel;resizable=0;html=1;align=center;verticalAlign=middle;shadow=0;glass=0;sketch=0;strokeColor=default;gradientColor=#ffffff;" connectable="0" vertex="1" parent="7qGiq1eLjrZXOj2jemI3-81">
          <mxGeometry relative="1" as="geometry" />
        </mxCell>
        <mxCell id="7qGiq1eLjrZXOj2jemI3-86" value="" style="endArrow=classic;html=1;rounded=0;exitX=1;exitY=0.5;exitDx=0;exitDy=0;entryX=0.5;entryY=0;entryDx=0;entryDy=0;" edge="1" parent="WIyWlLk6GJQsqaUBKTNV-1" source="7qGiq1eLjrZXOj2jemI3-7" target="7qGiq1eLjrZXOj2jemI3-6">
          <mxGeometry relative="1" as="geometry">
            <mxPoint x="160" y="420" as="sourcePoint" />
            <mxPoint x="350" y="420" as="targetPoint" />
          </mxGeometry>
        </mxCell>
        <mxCell id="7qGiq1eLjrZXOj2jemI3-87" value="se requests" style="edgeLabel;resizable=0;html=1;align=center;verticalAlign=middle;shadow=0;glass=0;sketch=0;strokeColor=default;gradientColor=#ffffff;" connectable="0" vertex="1" parent="7qGiq1eLjrZXOj2jemI3-86">
          <mxGeometry relative="1" as="geometry" />
        </mxCell>
        <mxCell id="7qGiq1eLjrZXOj2jemI3-88" value="" style="endArrow=classic;html=1;rounded=0;exitX=0;exitY=0.5;exitDx=0;exitDy=0;entryX=1;entryY=0.5;entryDx=0;entryDy=0;" edge="1" parent="WIyWlLk6GJQsqaUBKTNV-1" source="7qGiq1eLjrZXOj2jemI3-12" target="7qGiq1eLjrZXOj2jemI3-19">
          <mxGeometry relative="1" as="geometry">
            <mxPoint x="250" y="550" as="sourcePoint" />
            <mxPoint x="440" y="550" as="targetPoint" />
          </mxGeometry>
        </mxCell>
        <mxCell id="7qGiq1eLjrZXOj2jemI3-89" value="opdater" style="edgeLabel;resizable=0;html=1;align=center;verticalAlign=middle;shadow=0;glass=0;sketch=0;strokeColor=default;gradientColor=#ffffff;" connectable="0" vertex="1" parent="7qGiq1eLjrZXOj2jemI3-88">
          <mxGeometry relative="1" as="geometry" />
        </mxCell>
        <mxCell id="7qGiq1eLjrZXOj2jemI3-90" value="" style="endArrow=classic;html=1;rounded=0;entryX=1;entryY=0;entryDx=0;entryDy=0;" edge="1" parent="WIyWlLk6GJQsqaUBKTNV-1" target="7qGiq1eLjrZXOj2jemI3-11">
          <mxGeometry relative="1" as="geometry">
            <mxPoint x="700" y="380" as="sourcePoint" />
            <mxPoint x="700" y="390" as="targetPoint" />
          </mxGeometry>
        </mxCell>
        <mxCell id="7qGiq1eLjrZXOj2jemI3-91" value="se model" style="edgeLabel;resizable=0;html=1;align=center;verticalAlign=middle;shadow=0;glass=0;sketch=0;strokeColor=default;gradientColor=#ffffff;" connectable="0" vertex="1" parent="7qGiq1eLjrZXOj2jemI3-90">
          <mxGeometry relative="1" as="geometry" />
        </mxCell>
        <mxCell id="7qGiq1eLjrZXOj2jemI3-92" value="" style="endArrow=classic;html=1;rounded=0;entryX=1;entryY=0;entryDx=0;entryDy=0;" edge="1" parent="WIyWlLk6GJQsqaUBKTNV-1" target="7qGiq1eLjrZXOj2jemI3-16">
          <mxGeometry relative="1" as="geometry">
            <mxPoint x="730" y="450" as="sourcePoint" />
            <mxPoint x="460" y="570" as="targetPoint" />
          </mxGeometry>
        </mxCell>
        <mxCell id="7qGiq1eLjrZXOj2jemI3-93" value="godkend request" style="edgeLabel;resizable=0;html=1;align=center;verticalAlign=middle;shadow=0;glass=0;sketch=0;strokeColor=default;gradientColor=#ffffff;" connectable="0" vertex="1" parent="7qGiq1eLjrZXOj2jemI3-92">
          <mxGeometry relative="1" as="geometry" />
        </mxCell>
        <mxCell id="7qGiq1eLjrZXOj2jemI3-94" value="" style="endArrow=classic;html=1;rounded=0;exitX=0.75;exitY=1;exitDx=0;exitDy=0;entryX=0.75;entryY=0;entryDx=0;entryDy=0;" edge="1" parent="WIyWlLk6GJQsqaUBKTNV-1" source="7qGiq1eLjrZXOj2jemI3-14" target="7qGiq1eLjrZXOj2jemI3-17">
          <mxGeometry relative="1" as="geometry">
            <mxPoint x="280" y="580" as="sourcePoint" />
            <mxPoint x="470" y="580" as="targetPoint" />
          </mxGeometry>
        </mxCell>
        <mxCell id="7qGiq1eLjrZXOj2jemI3-95" value="slet request" style="edgeLabel;resizable=0;html=1;align=center;verticalAlign=middle;shadow=0;glass=0;sketch=0;strokeColor=default;gradientColor=#ffffff;" connectable="0" vertex="1" parent="7qGiq1eLjrZXOj2jemI3-94">
          <mxGeometry relative="1" as="geometry" />
        </mxCell>
        <mxCell id="7qGiq1eLjrZXOj2jemI3-96" value="" style="endArrow=none;html=1;rounded=0;entryX=0.25;entryY=1;entryDx=0;entryDy=0;" edge="1" parent="WIyWlLk6GJQsqaUBKTNV-1" target="7qGiq1eLjrZXOj2jemI3-14">
          <mxGeometry width="50" height="50" relative="1" as="geometry">
            <mxPoint x="700" y="380" as="sourcePoint" />
            <mxPoint x="440" y="270" as="targetPoint" />
          </mxGeometry>
        </mxCell>
        <mxCell id="7qGiq1eLjrZXOj2jemI3-97" value="" style="endArrow=none;html=1;rounded=0;entryX=0.5;entryY=1;entryDx=0;entryDy=0;" edge="1" parent="WIyWlLk6GJQsqaUBKTNV-1" target="7qGiq1eLjrZXOj2jemI3-14">
          <mxGeometry width="50" height="50" relative="1" as="geometry">
            <mxPoint x="730" y="450" as="sourcePoint" />
            <mxPoint x="440" y="270" as="targetPoint" />
          </mxGeometry>
        </mxCell>
        <mxCell id="7qGiq1eLjrZXOj2jemI3-98" value="&lt;b&gt;&lt;font style=&quot;font-size: 14px&quot;&gt;&amp;nbsp; Navigationsbaren indeholder:&lt;/font&gt;&lt;/b&gt;&lt;br&gt;&lt;span style=&quot;font-family: &amp;#34;arial&amp;#34; , &amp;#34;verdana&amp;#34; , &amp;#34;helvetica&amp;#34; , sans-serif ; font-size: 14px ; background-color: rgb(255 , 255 , 255)&quot;&gt;&amp;nbsp; Â·&lt;/span&gt;&lt;span style=&quot;font-family: &amp;#34;arial&amp;#34; , &amp;#34;verdana&amp;#34; , &amp;#34;helvetica&amp;#34; , sans-serif ; background-color: rgb(255 , 255 , 255)&quot;&gt;&lt;font&gt;&lt;font style=&quot;font-size: 14px&quot;&gt;Fog -&amp;gt; index.jsp&lt;/font&gt;&lt;br&gt;&lt;/font&gt;&lt;/span&gt;&lt;span style=&quot;font-family: &amp;#34;arial&amp;#34; , &amp;#34;verdana&amp;#34; , &amp;#34;helvetica&amp;#34; , sans-serif ; font-size: 14px ; background-color: rgb(255 , 255 , 255)&quot;&gt;&amp;nbsp; Â·om os -&amp;gt; about.jsp&lt;br&gt;&lt;/span&gt;&lt;span style=&quot;font-family: &amp;#34;arial&amp;#34; , &amp;#34;verdana&amp;#34; , &amp;#34;helvetica&amp;#34; , sans-serif ; font-size: 14px ; background-color: rgb(255 , 255 , 255)&quot;&gt;&amp;nbsp; Â·log ind -&amp;gt; login.jsp&lt;br&gt;&lt;/span&gt;&lt;font color=&quot;#66cc00&quot;&gt;&lt;span style=&quot;font-family: &amp;#34;arial&amp;#34; , &amp;#34;verdana&amp;#34; , &amp;#34;helvetica&amp;#34; , sans-serif ; font-size: 14px ; background-color: rgb(255 , 255 , 255)&quot;&gt;&amp;nbsp; Â·brugerside -&amp;gt; brugerside.jsp&lt;br&gt;&lt;/span&gt;&lt;span style=&quot;font-family: &amp;#34;arial&amp;#34; , &amp;#34;verdana&amp;#34; , &amp;#34;helvetica&amp;#34; , sans-serif ; font-size: 14px ; background-color: rgb(255 , 255 , 255)&quot;&gt;&amp;nbsp; Â·carport design -&amp;gt; carportDesign.jsp&lt;br&gt;&lt;/span&gt;&lt;/font&gt;&lt;span style=&quot;font-family: &amp;#34;arial&amp;#34; , &amp;#34;verdana&amp;#34; , &amp;#34;helvetica&amp;#34; , sans-serif ; font-size: 14px ; background-color: rgb(255 , 255 , 255)&quot;&gt;&lt;font color=&quot;#66cc00&quot;&gt;&amp;nbsp; Â·log ud -&amp;gt; index.jsp&lt;/font&gt;&lt;br&gt;&lt;/span&gt;&lt;span style=&quot;font-family: &amp;#34;arial&amp;#34; , &amp;#34;verdana&amp;#34; , &amp;#34;helvetica&amp;#34; , sans-serif ; font-size: 14px ; background-color: rgb(255 , 255 , 255)&quot;&gt;&lt;font color=&quot;#ff3333&quot;&gt;&amp;nbsp; Â·adminside -&amp;gt; brugerside.jsp&lt;/font&gt;&lt;/span&gt;" style="rounded=1;whiteSpace=wrap;html=1;shadow=0;glass=0;sketch=0;strokeColor=default;gradientColor=#ffffff;align=left;arcSize=10;" vertex="1" parent="WIyWlLk6GJQsqaUBKTNV-1">
          <mxGeometry x="170" y="430" width="330" height="150" as="geometry" />
        </mxCell>
        <mxCell id="7qGiq1eLjrZXOj2jemI3-99" value="RÃ¸d &lt;font color=&quot;#000000&quot;&gt;markerer admins adgang&lt;/font&gt;&lt;br&gt;&lt;font color=&quot;#66cc00&quot;&gt;GrÃ¸n&lt;/font&gt;&lt;font color=&quot;#000000&quot;&gt; markerer brugers adgang&lt;/font&gt;" style="rounded=1;whiteSpace=wrap;html=1;shadow=0;glass=0;sketch=0;fontSize=14;fontColor=#FF3333;strokeColor=default;gradientColor=#ffffff;" vertex="1" parent="WIyWlLk6GJQsqaUBKTNV-1">
          <mxGeometry x="15" y="510" width="130" height="70" as="geometry" />
        </mxCell>
        <mxCell id="7qGiq1eLjrZXOj2jemI3-100" value="Carport-projekt navigationsdiagram" style="text;html=1;strokeColor=none;fillColor=none;align=center;verticalAlign=middle;whiteSpace=wrap;rounded=0;shadow=0;glass=0;sketch=0;fontSize=14;fontColor=#000000;" vertex="1" parent="WIyWlLk6GJQsqaUBKTNV-1">
          <mxGeometry x="279" y="40" width="270" height="30" as="geometry" />
        </mxCell>
        <mxCell id="7qGiq1eLjrZXOj2jemI3-101" value="" style="endArrow=classic;html=1;rounded=0;fontSize=14;fontColor=#000000;exitX=0.5;exitY=1;exitDx=0;exitDy=0;entryX=0.5;entryY=0;entryDx=0;entryDy=0;" edge="1" parent="WIyWlLk6GJQsqaUBKTNV-1" source="7qGiq1eLjrZXOj2jemI3-6" target="7qGiq1eLjrZXOj2jemI3-14">
          <mxGeometry relative="1" as="geometry">
            <mxPoint x="360" y="330" as="sourcePoint" />
            <mxPoint x="460" y="330" as="targetPoint" />
          </mxGeometry>
        </mxCell>
        <mxCell id="7qGiq1eLjrZXOj2jemI3-102" value="se detaljer" style="edgeLabel;resizable=0;html=1;align=center;verticalAlign=middle;shadow=0;glass=0;sketch=0;fontSize=12;fontColor=#000000;strokeColor=default;gradientColor=#ffffff;" connectable="0" vertex="1" parent="7qGiq1eLjrZXOj2jemI3-101">
          <mxGeometry relative="1" as="geometry" />
        </mxCell>
      </root>
    </mxGraphModel>
  </diagram>
</mxfile>
